<svg xmlns="http://www.w3.org/2000/svg" id="Layer_1" style="" viewBox="0 0 24 24" x="0px" y="0px" width="24px" height="24px" xmlns:xml="http://www.w3.org/XML/1998/namespace" xml:space="preserve" version="1.0">
<g>
	<path d="M 12 2 C 8.134 2 5 5.134 5 9 c 0 4.38 4 5.9 4 9.99 l 6 -1.059 c 0 -3.299 4 -4.551 4 -8.931 C 19 5.134 15.866 2 12 2 Z" />
	<path d="M 14.402 18.51 l -5 1 c -0.271 0.054 -0.446 0.317 -0.392 0.588 C 9.057 20.336 9.266 20.5 9.5 20.5 c 0.032 0 0.065 -0.003 0.099 -0.01 l 5 -1 c 0.271 -0.054 0.447 -0.317 0.393 -0.588 C 14.936 18.63 14.661 18.453 14.402 18.51 Z" />
	<path d="M 14.402 20.01 l -5 1 c -0.271 0.054 -0.446 0.317 -0.392 0.588 C 9.057 21.836 9.266 22 9.5 22 c 0.032 0 0.065 -0.003 0.099 -0.01 l 5 -1 c 0.271 -0.054 0.447 -0.317 0.393 -0.588 C 14.936 20.13 14.661 19.954 14.402 20.01 Z" />
	<path d="M 12 24 c 0.828 0 1.5 -0.562 1.5 -2 l -3 0.5 C 10.5 23.328 11.172 24 12 24 Z" />
	<path d="M 22.052 1.925 l -3.069 2.241 c 0.112 0.162 0.214 0.33 0.315 0.499 l 3.428 -1.587 L 22.052 1.925 Z" />
	<path d="M 20.492 8.851 L 24 9.168 l -0.008 -1.335 l -3.532 0.38 C 20.48 8.423 20.489 8.636 20.492 8.851 Z" />
	<path d="M 1.947 1.928 L 1.273 3.08 L 4.7 4.667 C 4.801 4.498 4.904 4.33 5.016 4.168 L 1.947 1.928 Z" />
	<path d="M 1.28 13.918 l 0.661 1.16 l 2.688 -1.893 c -0.109 -0.197 -0.212 -0.402 -0.311 -0.611 L 1.28 13.918 Z" />
	<path d="M 3.54 8.212 l -3.532 -0.38 L 0 9.168 l 3.508 -0.316 C 3.511 8.636 3.52 8.423 3.54 8.212 Z" />
	<path d="M 19.33 13.159 l 2.728 1.921 l 0.661 -1.16 l -3.059 -1.353 C 19.556 12.773 19.444 12.968 19.33 13.159 Z" />
</g>
</svg>